<?xml version="1.0" encoding="UTF-8" standalone="no"?> <!-- Created with Vectornator for iOS (http://vectornator.io/) --><!DOCTYPE svg PUBLIC "-//W3C//DTD SVG 1.1//EN" "http://www.w3.org/Graphics/SVG/1.1/DTD/svg11.dtd">
<svg style="fill-rule:evenodd;clip-rule:evenodd;stroke-linecap:round;stroke-linejoin:round;" xmlns:vectornator="http://vectornator.io" xmlns:xlink="http://www.w3.org/1999/xlink" xmlns="http://www.w3.org/2000/svg" xml:space="preserve" version="1.1" viewBox="0 0 1024 1024">
<metadata>
<vectornator:setting key="DisplayWhiteBackground" value="0"/>
<vectornator:setting key="RulersVisible" value="1"/>
<vectornator:setting key="GridSpacing" value="36"/>
<vectornator:setting key="Units" value="Pixels"/>
<vectornator:setting key="DynamicGuides" value="0"/>
<vectornator:setting key="SnapToPoints" value="0"/>
<vectornator:setting key="CMYKEnabledKey" value="0"/>
<vectornator:setting key="SnapToGrid" value="0"/>
<vectornator:setting key="SnapToGuides" value="1"/>
<vectornator:setting key="ShowGrid" value="1"/>
<vectornator:setting key="SnapToEdges" value="0"/>
</metadata>
<defs/>
<g id="Layer 2" vectornator:layerName="Layer 2">
<path stroke="#0a0a0a" stroke-width="1" d="M352.77+817.65C531.636+817.946+710.508+817.069+889.368+818.537C903.613+818.654+903.343+853.964+887.635+854.002C640.864+854.59+394.091+854.59+147.32+854.002C146.027+853.999+144.852+853.066+143.852+852.229C105.333+819.995+172.433+818.596+172.459+815.877C173.317+727.81+171.889+639.732+172.459+551.662C172.478+548.682+179.906+542.003+180.261+541.909C188.002+539.857+205.323+539.561+205.401+551.662C205.971+640.325+206.556+728.987+207.134+817.65C219.858+817.968+245.142+828.893+245.277+815.877C246.135+733.13+244.138+650.365+245.277+567.621C245.478+553.027+279.842+553.34+279.952+569.395C280.522+652.144+279.952+734.898+279.952+817.65C292.676+817.968+318.02+828.894+318.095+815.877C318.957+665.153+317.521+514.423+318.095+363.697C318.157+347.296+352.71+347.812+352.77+363.697C353.343+515.014+352.77+666.332+352.77+817.65Z" fill="#0a0a0a" stroke-linecap="round" opacity="1" stroke-linejoin="round"/>
<path stroke="#0d0d0e" stroke-width="1" d="M393.513+73.7703C531.568+69.336+669.76+73.1889+807.882+73.7703C823.599+73.8364+842.389+91.3308+852.092+101.256C861.288+110.661+867.583+129.098+867.696+142.041C868.826+271.484+869.43+400.934+869.43+530.383C869.43+534.147+863.766+541.579+859.894+541.909C835.984+543.947+834.849+537.347+834.755+516.197C834.201+392.069+834.155+267.938+833.021+143.814C832.944+135.422+825.41+125.39+820.018+119.875C814.31+114.037+807.204+109.27+799.213+109.235C663.98+108.652+528.712+110.651+393.513+107.462C374.923+107.024+387.183+73.9736+393.513+73.7703Z" fill="#0d0d0e" stroke-linecap="round" opacity="1" stroke-linejoin="round"/>
<path stroke="#060606" stroke-width="1" d="M195.865+259.962C319.719+249.79+444.396+257.357+568.623+259.962C572.3+260.039+574.331+264.849+576.425+267.942C579.94+273.134+578.57+293.44+568.623+293.654C447.287+296.257+325.894+292.769+204.534+293.654C132.504+294.179+195.265+535.784+162.924+541.909C157.76+542.887+136.157+545.306+136.05+532.156C135.482+462.411+135.491+392.658+136.05+322.912C136.317+289.683+169.372+262.138+195.865+259.962Z" fill="#060606" stroke-linecap="round" opacity="1" stroke-linejoin="round"/>
<path stroke="#080808" stroke-width="1" d="M653.577+525.95C674.918+518.327+703.109+517.397+721.194+531.27C733.771+540.917+733.215+569.989+748.934+570.281C795.738+571.152+842.57+569.128+889.368+570.281C903.678+570.634+903.308+605.579+887.635+605.746C833.313+606.325+778.983+606.325+724.661+605.746C703.463+605.52+720.039+562.316+702.122+561.415C694.608+561.037+598.301+545.694+653.577+525.95Z" fill="#080808" stroke-linecap="round" opacity="1" stroke-linejoin="round"/>
<path stroke="#0e0e0e" stroke-width="1" d="M419.52+570.281C488.662+564.787+558.223+569.7+627.571+570.281C643.409+570.414+642.252+605.606+625.837+605.746C557.645+606.328+489.446+606.328+421.254+605.746C403.113+605.592+405.297+571.411+419.52+570.281Z" fill="#0e0e0e" stroke-linecap="round" opacity="1" stroke-linejoin="round"/>
<path stroke="#0b0b0b" stroke-width="1" d="M556.487+352.171C619.387+348.677+682.476+351.596+745.466+352.171C763.47+352.335+765.505+387.489+748.934+387.636C683.631+388.217+618.322+388.217+553.019+387.636C532.86+387.457+543.58+352.888+556.487+352.171Z" fill="#0b0b0b" stroke-linecap="round" opacity="1" stroke-linejoin="round"/>
<path stroke="#020000" stroke-width="1" d="M254.781+73C251.427+73.089+247.958+73.3589+244.406+73.7812C142.562+85.8922+172.292+238.835+282.562+229.812C368.122+222.812+358.77+70.242+254.781+73ZM264.438+108.031C316.617+105.058+319.298+193.82+275.875+196.781C213.596+201.028+203.304+123.52+253.344+109.906C257.263+108.84+260.959+108.229+264.438+108.031Z" fill="#020000" stroke-linecap="round" opacity="1" stroke-linejoin="round"/>
<path stroke="#151515" stroke-width="1" d="M492.338+446.154C547.646+441.686+603.301+445.575+658.778+446.154C673.83+446.311+672.275+481.458+657.045+481.619C602.145+482.197+547.158+484.687+492.338+481.619C473.826+480.582+480.737+447.091+492.338+446.154Z" fill="#151515" stroke-linecap="round" opacity="1" stroke-linejoin="round"/>
<path stroke="#111111" stroke-width="1" d="M674.382+259.962C699.579+256.459+725.348+257.559+750.668+259.962C762.364+261.072+764.191+292.396+750.668+293.654C724.768+296.062+698.548+296.062+672.648+293.654C655.538+292.063+663.866+261.424+674.382+259.962Z" fill="#111111" stroke-linecap="round" opacity="1" stroke-linejoin="round"/>
<path stroke="#202020" stroke-width="1" d="M735.064+446.154C749.987+441.786+777.69+471.268+750.668+479.845C725.484+487.839+712.743+452.686+735.064+446.154Z" fill="#202020" stroke-linecap="round" opacity="1" stroke-linejoin="round"/>
</g>
</svg>
