<?xml version="1.0" encoding="UTF-8" standalone="no"?> <!-- Created with Vectornator for iOS (http://vectornator.io/) --><!DOCTYPE svg PUBLIC "-//W3C//DTD SVG 1.1//EN" "http://www.w3.org/Graphics/SVG/1.1/DTD/svg11.dtd">
<svg height="100%" style="fill-rule:evenodd;clip-rule:evenodd;stroke-linecap:round;stroke-linejoin:round;" xmlns:xlink="http://www.w3.org/1999/xlink" xmlns="http://www.w3.org/2000/svg" xml:space="preserve" width="100%" xmlns:vectornator="http://vectornator.io" version="1.1" viewBox="0 0 600 200">
<metadata>
<vectornator:setting key="DisplayWhiteBackground" value="0"/>
<vectornator:setting key="RulersVisible" value="1"/>
<vectornator:setting key="GridSpacing" value="36"/>
<vectornator:setting key="Units" value="Pixels"/>
<vectornator:setting key="DynamicGuides" value="0"/>
<vectornator:setting key="SnapToPoints" value="0"/>
<vectornator:setting key="SnapToGrid" value="0"/>
<vectornator:setting key="SnapToGuides" value="1"/>
<vectornator:setting key="ShowGrid" value="1"/>
<vectornator:setting key="SnapToEdges" value="0"/>
</metadata>
<defs/>
<g id="Layer 1" vectornator:layerName="Layer 1">
<path stroke="#ff0000" stroke-width="1" d="M13.3156+21.1993L137.853+21.1993L137.853+114.712L13.3156+114.712L13.3156+21.1993Z" fill="#ff0000" stroke-linecap="butt" opacity="1" stroke-linejoin="round"/>
<path stroke="#ff0000" stroke-width="1" d="M156.379+18.0013L280.916+18.0013L280.916+111.514L156.379+111.514L156.379+18.0013Z" fill="#ff0000" stroke-linecap="butt" opacity="1" stroke-linejoin="round"/>
<path stroke="#ff0000" stroke-width="1" d="M315.977+20.3998L440.514+20.3998L440.514+113.912L315.977+113.912L315.977+20.3998Z" fill="#ff0000" stroke-linecap="butt" opacity="1" stroke-linejoin="round"/>
<path stroke="#ff0000" stroke-width="1" d="M-131.904+26.7959L-7.36707+26.7959L-7.36707+120.308L-131.904+120.308L-131.904+26.7959Z" fill="#ff0000" stroke-linecap="butt" opacity="1" stroke-linejoin="round"/>
<path stroke="#ff0000" stroke-width="1" d="M446.818+20.3998L571.355+20.3998L571.355+113.912L446.818+113.912L446.818+20.3998Z" fill="#ff0000" stroke-linecap="butt" opacity="1" stroke-linejoin="round"/>
<path stroke="#ff0000" stroke-width="1" d="M112.854+13.6172L237.392+13.6172L237.392+107.13L112.854+107.13L112.854+13.6172Z" fill="#ff0000" stroke-linecap="butt" opacity="1" stroke-linejoin="round"/>
<path stroke="#ff0000" stroke-width="1" d="M255.917+10.4192L380.455+10.4192L380.455+103.932L255.917+103.932L255.917+10.4192Z" fill="#ff0000" stroke-linecap="butt" opacity="1" stroke-linejoin="round"/>
<path stroke="#ff0000" stroke-width="1" d="M415.516+12.8177L540.053+12.8177L540.053+106.33L415.516+106.33L415.516+12.8177Z" fill="#ff0000" stroke-linecap="butt" opacity="1" stroke-linejoin="round"/>
<path stroke="#ff0000" stroke-width="1" d="M-32.3654+19.2138L92.1717+19.2138L92.1717+112.726L-32.3654+112.726L-32.3654+19.2138Z" fill="#ff0000" stroke-linecap="butt" opacity="1" stroke-linejoin="round"/>
<path stroke="#ff0000" stroke-width="1" d="M546.357+12.8177L670.894+12.8177L670.894+106.33L546.357+106.33L546.357+12.8177Z" fill="#ff0000" stroke-linecap="butt" opacity="1" stroke-linejoin="round"/>
<path stroke="#ff0000" stroke-width="1" d="M14.6792+104.097L139.216+104.097L139.216+197.609L14.6792+197.609L14.6792+104.097Z" fill="#ff0000" stroke-linecap="butt" opacity="1" stroke-linejoin="round"/>
<path stroke="#ff0000" stroke-width="1" d="M157.742+100.899L282.279+100.899L282.279+194.411L157.742+194.411L157.742+100.899Z" fill="#ff0000" stroke-linecap="butt" opacity="1" stroke-linejoin="round"/>
<path stroke="#ff0000" stroke-width="1" d="M317.34+103.297L441.877+103.297L441.877+196.81L317.34+196.81L317.34+103.297Z" fill="#ff0000" stroke-linecap="butt" opacity="1" stroke-linejoin="round"/>
<path stroke="#ff0000" stroke-width="1" d="M-130.541+109.693L-6.00352+109.693L-6.00352+203.206L-130.541+203.206L-130.541+109.693Z" fill="#ff0000" stroke-linecap="butt" opacity="1" stroke-linejoin="round"/>
<path stroke="#ff0000" stroke-width="1" d="M448.182+103.297L572.719+103.297L572.719+196.81L448.182+196.81L448.182+103.297Z" fill="#ff0000" stroke-linecap="butt" opacity="1" stroke-linejoin="round"/>
<path stroke="#ff0000" stroke-width="1" d="M116.036+97.0203L240.573+97.0203L240.573+190.533L116.036+190.533L116.036+97.0203Z" fill="#ff0000" stroke-linecap="butt" opacity="1" stroke-linejoin="round"/>
<path stroke="#ff0000" stroke-width="1" d="M259.099+93.8222L383.636+93.8222L383.636+187.335L259.099+187.335L259.099+93.8222Z" fill="#ff0000" stroke-linecap="butt" opacity="1" stroke-linejoin="round"/>
<path stroke="#ff0000" stroke-width="1" d="M418.697+96.2208L543.234+96.2208L543.234+189.733L418.697+189.733L418.697+96.2208Z" fill="#ff0000" stroke-linecap="butt" opacity="1" stroke-linejoin="round"/>
<path stroke="#ff0000" stroke-width="1" d="M-29.1838+102.617L95.3533+102.617L95.3533+196.129L-29.1838+196.129L-29.1838+102.617Z" fill="#ff0000" stroke-linecap="butt" opacity="1" stroke-linejoin="round"/>
<path stroke="#ff0000" stroke-width="1" d="M549.539+96.2208L674.076+96.2208L674.076+189.733L549.539+189.733L549.539+96.2208Z" fill="#ff0000" stroke-linecap="butt" opacity="1" stroke-linejoin="round"/>
<path stroke="#ff0000" stroke-width="1" d="M136.489+178.907L137.398+178.907L137.398+179.412L136.489+179.412L136.489+178.907Z" fill="#ff0000" stroke-linecap="butt" opacity="1" stroke-linejoin="round"/>
<path stroke="#ff0000" stroke-width="1" d="M279.552+175.709L280.461+175.709L280.461+176.214L279.552+176.214L279.552+175.709Z" fill="#ff0000" stroke-linecap="butt" opacity="1" stroke-linejoin="round"/>
<path stroke="#ff0000" stroke-width="1" d="M439.15+178.107L440.059+178.107L440.059+178.613L439.15+178.613L439.15+178.107Z" fill="#ff0000" stroke-linecap="butt" opacity="1" stroke-linejoin="round"/>
<path stroke="#ff0000" stroke-width="1" d="M-8.73061+184.503L-7.82158+184.503L-7.82158+185.009L-8.73061+185.009L-8.73061+184.503Z" fill="#ff0000" stroke-linecap="butt" opacity="1" stroke-linejoin="round"/>
<path stroke="#ff0000" stroke-width="1" d="M569.992+178.107L570.901+178.107L570.901+178.613L569.992+178.613L569.992+178.107Z" fill="#ff0000" stroke-linecap="butt" opacity="1" stroke-linejoin="round"/>
<path stroke="#ff0000" stroke-width="1" d="M197.849+165.765L198.758+165.765L198.758+166.776L197.849+166.776L197.849+165.765Z" fill="#ff0000" stroke-linecap="butt" opacity="1" stroke-linejoin="round"/>
<path stroke="#ff0000" stroke-width="1" d="M340.912+162.567L341.821+162.567L341.821+163.577L340.912+163.577L340.912+162.567Z" fill="#ff0000" stroke-linecap="butt" opacity="1" stroke-linejoin="round"/>
<path stroke="#ff0000" stroke-width="1" d="M500.51+164.965L501.419+164.965L501.419+165.976L500.51+165.976L500.51+164.965Z" fill="#ff0000" stroke-linecap="butt" opacity="1" stroke-linejoin="round"/>
<path stroke="#ff0000" stroke-width="1" d="M52.6289+171.361L53.5379+171.361L53.5379+172.372L52.6289+172.372L52.6289+171.361Z" fill="#ff0000" stroke-linecap="butt" opacity="1" stroke-linejoin="round"/>
<path stroke="#ff0000" stroke-width="1" d="M631.351+164.965L632.26+164.965L632.26+165.976L631.351+165.976L631.351+164.965Z" fill="#ff0000" stroke-linecap="butt" opacity="1" stroke-linejoin="round"/>
<path stroke="#000000" stroke-width="1" d="M82.4374+23.0173L150.957+124.458L78.2758+185.177L9.75649+83.7355L82.4374+23.0173Z" fill="#000000" stroke-linecap="butt" opacity="1" stroke-linejoin="round"/>
<path stroke="#000000" stroke-width="1" d="M225.5+19.8192L294.02+121.26L221.339+181.978L152.82+80.5375L225.5+19.8192Z" fill="#000000" stroke-linecap="butt" opacity="1" stroke-linejoin="round"/>
<path stroke="#000000" stroke-width="1" d="M385.098+22.2177L453.618+123.659L380.937+184.377L312.418+82.936L385.098+22.2177Z" fill="#000000" stroke-linecap="butt" opacity="1" stroke-linejoin="round"/>
<path stroke="#000000" stroke-width="1" d="M-62.7824+28.6138L5.73691+130.055L-66.944+190.773L-135.463+89.3321L-62.7824+28.6138Z" fill="#000000" stroke-linecap="butt" opacity="1" stroke-linejoin="round"/>
<path stroke="#000000" stroke-width="1" d="M515.94+22.2177L584.459+123.659L511.779+184.377L443.259+82.936L515.94+22.2177Z" fill="#000000" stroke-linecap="butt" opacity="1" stroke-linejoin="round"/>
<path stroke="#000000" stroke-width="1" d="M82.4374+23.0173L150.957+124.458L78.2758+185.177L9.75649+83.7355L82.4374+23.0173Z" fill="#000000" stroke-linecap="butt" opacity="1" stroke-linejoin="round"/>
<path stroke="#000000" stroke-width="1" d="M225.5+19.8192L294.02+121.26L221.339+181.978L152.82+80.5375L225.5+19.8192Z" fill="#000000" stroke-linecap="butt" opacity="1" stroke-linejoin="round"/>
<path stroke="#000000" stroke-width="1" d="M385.098+22.2177L453.618+123.659L380.937+184.377L312.418+82.936L385.098+22.2177Z" fill="#000000" stroke-linecap="butt" opacity="1" stroke-linejoin="round"/>
<path stroke="#000000" stroke-width="1" d="M-62.7824+28.6138L5.73691+130.055L-66.944+190.773L-135.463+89.3321L-62.7824+28.6138Z" fill="#000000" stroke-linecap="butt" opacity="1" stroke-linejoin="round"/>
<path stroke="#000000" stroke-width="1" d="M515.94+22.2177L584.459+123.659L511.779+184.377L443.259+82.936L515.94+22.2177Z" fill="#000000" stroke-linecap="butt" opacity="1" stroke-linejoin="round"/>
<path stroke="#000000" stroke-width="1" d="M172.431+26.0501L240.951+127.491L168.27+188.209L99.7504+86.7684L172.431+26.0501Z" fill="#000000" stroke-linecap="butt" opacity="1" stroke-linejoin="round"/>
<path stroke="#000000" stroke-width="1" d="M315.494+22.8521L384.014+124.293L311.333+185.011L242.814+83.5703L315.494+22.8521Z" fill="#000000" stroke-linecap="butt" opacity="1" stroke-linejoin="round"/>
<path stroke="#000000" stroke-width="1" d="M475.092+25.2506L543.612+126.692L470.931+187.41L402.412+85.9688L475.092+25.2506Z" fill="#000000" stroke-linecap="butt" opacity="1" stroke-linejoin="round"/>
<path stroke="#000000" stroke-width="1" d="M27.2115+31.6467L95.7309+133.088L23.05+193.806L-45.4694+92.3649L27.2115+31.6467Z" fill="#000000" stroke-linecap="butt" opacity="1" stroke-linejoin="round"/>
<path stroke="#000000" stroke-width="1" d="M605.934+25.2506L674.453+126.692L601.773+187.41L533.253+85.9688L605.934+25.2506Z" fill="#000000" stroke-linecap="butt" opacity="1" stroke-linejoin="round"/>
<path stroke="#ff0000" stroke-width="1" d="M81.7201+81.8561L81.7201+81.8561C91.3845+81.8561+99.219+90.5689+99.219+101.317L99.219+103.339C99.219+114.087+91.3845+122.799+81.7201+122.799L81.7201+122.799C72.0558+122.799+64.2213+114.087+64.2213+103.339L64.2213+101.317C64.2213+90.5689+72.0558+81.8561+81.7201+81.8561Z" fill="#ff0000" stroke-linecap="butt" opacity="1" stroke-linejoin="round"/>
<path stroke="#ff0000" stroke-width="1" d="M224.783+78.658L224.783+78.658C234.448+78.658+242.282+87.3709+242.282+98.1188L242.282+100.141C242.282+110.888+234.448+119.601+224.783+119.601L224.783+119.601C215.119+119.601+207.284+110.888+207.284+100.141L207.284+98.1188C207.284+87.3709+215.119+78.658+224.783+78.658Z" fill="#ff0000" stroke-linecap="butt" opacity="1" stroke-linejoin="round"/>
<path stroke="#ff0000" stroke-width="1" d="M384.381+81.0566L384.381+81.0566C394.046+81.0566+401.88+89.7694+401.88+100.517L401.88+102.539C401.88+113.287+394.046+122+384.381+122L384.381+122C374.717+122+366.882+113.287+366.882+102.539L366.882+100.517C366.882+89.7694+374.717+81.0566+384.381+81.0566Z" fill="#ff0000" stroke-linecap="butt" opacity="1" stroke-linejoin="round"/>
<path stroke="#ff0000" stroke-width="1" d="M-63.4997+87.4527L-63.4997+87.4527C-53.8353+87.4527-46.0008+96.1655-46.0008+106.913L-46.0008+108.935C-46.0008+119.683-53.8353+128.396-63.4997+128.396L-63.4997+128.396C-73.164+128.396-80.9985+119.683-80.9985+108.935L-80.9985+106.913C-80.9985+96.1655-73.164+87.4527-63.4997+87.4527Z" fill="#ff0000" stroke-linecap="butt" opacity="1" stroke-linejoin="round"/>
<path stroke="#ff0000" stroke-width="1" d="M515.223+81.0566L515.223+81.0566C524.887+81.0566+532.722+89.7694+532.722+100.517L532.722+102.539C532.722+113.287+524.887+122+515.223+122L515.223+122C505.559+122+497.724+113.287+497.724+102.539L497.724+100.517C497.724+89.7694+505.559+81.0566+515.223+81.0566Z" fill="#ff0000" stroke-linecap="butt" opacity="1" stroke-linejoin="round"/>
<path stroke="#ff0000" stroke-width="1" d="M166.714+78.3178L166.714+78.3178C176.379+78.3178+184.213+87.0306+184.213+97.7785L184.213+99.8004C184.213+110.548+176.379+119.261+166.714+119.261L166.714+119.261C157.05+119.261+149.216+110.548+149.216+99.8004L149.216+97.7785C149.216+87.0306+157.05+78.3178+166.714+78.3178Z" fill="#ff0000" stroke-linecap="butt" opacity="1" stroke-linejoin="round"/>
<path stroke="#ff0000" stroke-width="1" d="M309.778+75.1197L309.778+75.1197C319.442+75.1197+327.276+83.8326+327.276+94.5804L327.276+96.6023C327.276+107.35+319.442+116.063+309.778+116.063L309.778+116.063C300.113+116.063+292.279+107.35+292.279+96.6023L292.279+94.5804C292.279+83.8326+300.113+75.1197+309.778+75.1197Z" fill="#ff0000" stroke-linecap="butt" opacity="1" stroke-linejoin="round"/>
<path stroke="#ff0000" stroke-width="1" d="M469.376+77.5183L469.376+77.5183C479.04+77.5183+486.874+86.2311+486.874+96.979L486.874+99.0009C486.874+109.749+479.04+118.462+469.376+118.462L469.376+118.462C459.711+118.462+451.877+109.749+451.877+99.0009L451.877+96.979C451.877+86.2311+459.711+77.5183+469.376+77.5183Z" fill="#ff0000" stroke-linecap="butt" opacity="1" stroke-linejoin="round"/>
<path stroke="#ff0000" stroke-width="1" d="M21.4946+83.9144L21.4946+83.9144C31.159+83.9144+38.9935+92.6272+38.9935+103.375L38.9935+105.397C38.9935+116.145+31.159+124.858+21.4946+124.858L21.4946+124.858C11.8303+124.858+3.99581+116.145+3.99581+105.397L3.99581+103.375C3.99581+92.6272+11.8303+83.9144+21.4946+83.9144Z" fill="#ff0000" stroke-linecap="butt" opacity="1" stroke-linejoin="round"/>
<path stroke="#ff0000" stroke-width="1" d="M600.217+77.5183L600.217+77.5183C609.881+77.5183+617.716+86.2311+617.716+96.979L617.716+99.0009C617.716+109.749+609.881+118.462+600.217+118.462L600.217+118.462C590.553+118.462+582.718+109.749+582.718+99.0009L582.718+96.979C582.718+86.2311+590.553+77.5183+600.217+77.5183Z" fill="#ff0000" stroke-linecap="butt" opacity="1" stroke-linejoin="round"/>
</g>
</svg>
