<?xml version="1.0" encoding="UTF-8" standalone="no"?> <!-- Created with Vectornator for iOS (http://vectornator.io/) --><!DOCTYPE svg PUBLIC "-//W3C//DTD SVG 1.1//EN" "http://www.w3.org/Graphics/SVG/1.1/DTD/svg11.dtd">
<svg style="fill-rule:evenodd;clip-rule:evenodd;stroke-linecap:round;stroke-linejoin:round;" xmlns:vectornator="http://vectornator.io" xmlns:xlink="http://www.w3.org/1999/xlink" xmlns="http://www.w3.org/2000/svg" xml:space="preserve" version="1.1" viewBox="0 0 150 150">
<metadata>
<vectornator:setting key="DisplayWhiteBackground" value="0"/>
<vectornator:setting key="RulersVisible" value="1"/>
<vectornator:setting key="SnapToEdges" value="0"/>
<vectornator:setting key="Units" value="Pixels"/>
<vectornator:setting key="DynamicGuides" value="0"/>
<vectornator:setting key="SnapToPoints" value="0"/>
<vectornator:setting key="SnapToGrid" value="0"/>
<vectornator:setting key="SnapToGuides" value="1"/>
<vectornator:setting key="ShowGrid" value="1"/>
<vectornator:setting key="GridSpacing" value="36"/>
</metadata>
<defs/>
<g id="Layer 1" vectornator:layerName="Layer 1">
<path d="M69.2259+12.4216C60.0043+12.4216+51.9835+17.4626+46.9446+25.0079C44.3956+24.1624+41.8073+23.3811+38.9926+23.3811C23.7185+23.3811+11.2788+36.9093+11.2788+53.5198C11.2788+66.2345+18.6403+76.9265+28.9149+81.3467L28.9149+112.941C28.7672+113.476+28.7672+114.033+28.9149+114.568L28.9149+135.716C28.9149+137.225+30.0466+138.456+31.4343+138.456L107.017+138.456C108.405+138.456+109.537+137.225+109.537+135.716L109.537+114.311C109.606+113.947+109.606+113.562+109.537+113.198L109.537+81.3467C119.811+76.9265+127.173+66.2345+127.173+53.5198C127.173+36.9093+114.733+23.3811+99.4591+23.3811C96.6444+23.3811+94.0561+24.1624+91.5071+25.0079C86.4683+17.4626+78.4474+12.4216+69.2259+12.4216ZM69.2259+17.9014C77.3058+17.9014+84.3326+22.4714+88.3578+29.3746C88.9975+30.5091+90.2966+30.98+91.4284+30.4877C93.9478+29.4388+96.6247+28.8609+99.4591+28.8609C112.017+28.8609+122.134+39.8632+122.134+53.5198C122.134+64.5863+115.422+73.919+106.23+77.0656C105.207+77.4295+104.508+78.4677+104.498+79.6343L104.498+111.057L33.9537+111.057L33.9537+79.6343C33.9439+78.4677+33.2451+77.4295+32.2216+77.0656C23.0296+73.919+16.3177+64.5863+16.3177+53.5198C16.3177+39.8632+26.4348+28.8609+38.9926+28.8609C41.827+28.8609+44.5039+29.4388+47.0233+30.4877C48.1551+30.98+49.4542+30.5091+50.0939+29.3746C54.1191+22.4714+61.1459+17.9014+69.2259+17.9014ZM51.3536+80.8329C51.2453+80.8544+51.1371+80.8865+51.0387+80.9186C49.8675+81.2075+49.0408+82.3527+49.0704+83.6584L49.0704+91.8781C49.0605+92.8627+49.5329+93.7832+50.3202+94.2862C51.1076+94.7785+52.072+94.7785+52.8594+94.2862C53.6467+93.7832+54.1191+92.8627+54.1092+91.8781L54.1092+83.6584C54.1388+82.8664+53.8435+82.1066+53.3219+81.5714C52.7905+81.0256+52.072+80.758+51.3536+80.8329ZM68.9897+80.8329C68.8814+80.8544+68.7731+80.8865+68.6747+80.9186C67.5036+81.2075+66.6769+82.3527+66.7064+83.6584L66.7064+94.618C66.6966+95.6026+67.169+96.523+67.9563+97.0261C68.7436+97.5184+69.7081+97.5184+70.4954+97.0261C71.2827+96.523+71.7551+95.6026+71.7453+94.618L71.7453+83.6584C71.7748+82.8664+71.4796+82.1066+70.958+81.5714C70.4265+81.0256+69.7081+80.758+68.9897+80.8329ZM86.6257+80.8329C86.5175+80.8544+86.4092+80.8865+86.3108+80.9186C85.1396+81.2075+84.313+82.3527+84.3425+83.6584L84.3425+91.8781C84.3326+92.8627+84.805+93.7832+85.5924+94.2862C86.3797+94.7785+87.3442+94.7785+88.1315+94.2862C88.9188+93.7832+89.3912+92.8627+89.3814+91.8781L89.3814+83.6584C89.4109+82.8664+89.1156+82.1066+88.594+81.5714C88.0626+81.0256+87.3442+80.758+86.6257+80.8329ZM33.9537+116.537L104.498+116.537L104.498+132.976L33.9537+132.976L33.9537+116.537Z" opacity="1" fill="#000000"/>
</g>
</svg>
