<?xml version="1.0" encoding="UTF-8" standalone="no"?> <!-- Created with Vectornator for iOS (http://vectornator.io/) --><!DOCTYPE svg PUBLIC "-//W3C//DTD SVG 1.1//EN" "http://www.w3.org/Graphics/SVG/1.1/DTD/svg11.dtd">
<svg style="fill-rule:evenodd;clip-rule:evenodd;stroke-linecap:round;stroke-linejoin:round;" xmlns:vectornator="http://vectornator.io" xmlns:xlink="http://www.w3.org/1999/xlink" xmlns="http://www.w3.org/2000/svg" xml:space="preserve" version="1.1" viewBox="0 0 150 150">
<metadata>
<vectornator:setting key="DisplayWhiteBackground" value="0"/>
<vectornator:setting key="RulersVisible" value="1"/>
<vectornator:setting key="SnapToEdges" value="0"/>
<vectornator:setting key="Units" value="Pixels"/>
<vectornator:setting key="DynamicGuides" value="0"/>
<vectornator:setting key="SnapToPoints" value="0"/>
<vectornator:setting key="SnapToGrid" value="0"/>
<vectornator:setting key="SnapToGuides" value="1"/>
<vectornator:setting key="ShowGrid" value="1"/>
<vectornator:setting key="GridSpacing" value="36"/>
</metadata>
<defs/>
<g id="Layer 1" vectornator:layerName="Layer 1">
<path d="M20.981+20.758C20.8906+20.7601+20.8003+20.7692+20.7111+20.7852L11.6699+20.7852L11.6699+22.7696L11.6699+50.5512C11.6699+55.1724+13.9921+59.0661+17.2741+61.5894L17.2741+120.005C17.2741+124.366+20.6416+127.943+24.7464+127.943C28.8511+127.943+32.2187+124.366+32.2187+120.005L32.2187+95.3629C39.138+112.191+54.9409+123.974+73.3162+123.974C91.6915+123.974+107.494+112.191+114.414+95.3629L114.414+119.668C114.414+123.881+117.392+127.703+121.488+127.931C125.76+128.167+129.358+124.506+129.358+120.005L129.358+79.5575L136.831+75.5887L136.831+42.6136C136.831+30.5813+127.609+20.7852+116.282+20.7852L116.282+24.754L114.414+22.7696L114.414+57.3338C107.494+40.5059+91.6915+28.7228+73.3162+28.7228C58.8756+28.7228+46.0257+36.0017+37.8229+47.2839L37.8229+20.7852L28.7708+20.7852C28.6659+20.7666+28.5597+20.7575+28.4533+20.758C28.3628+20.7601+28.2726+20.7692+28.1833+20.7852L21.2985+20.7852C21.1936+20.7666+21.0874+20.7575+20.981+20.758ZM15.406+24.754L19.1422+24.754L19.1422+44.598C19.1326+45.3136+19.4866+45.9793+20.0685+46.3401C20.6504+46.7008+21.3701+46.7008+21.952+46.3401C22.5339+45.9793+22.8878+45.3136+22.8783+44.598L22.8783+24.754L26.6144+24.754L26.6144+44.598C26.6049+45.3136+26.9589+45.9793+27.5408+46.3401C28.1227+46.7008+28.8424+46.7008+29.4243+46.3401C30.0062+45.9793+30.3601+45.3136+30.3506+44.598L30.3506+24.754L34.0867+24.754L34.0867+50.5512C34.0867+54.2367+32.2052+57.4179+29.4129+59.136L28.4825+59.7096L28.4825+120.005C28.4825+122.221+26.8324+123.974+24.7464+123.974C22.6604+123.974+21.0102+122.221+21.0102+120.005L21.0102+59.7096L20.0799+59.136C17.2876+57.4179+15.406+54.2367+15.406+50.5512L15.406+24.754ZM118.15+25.1532C126.529+26.18+133.094+33.4308+133.094+42.6136L133.094+73.1392L125.622+77.108L125.622+120.005C125.622+122.291+123.874+124.091+121.682+123.97C119.715+123.861+118.15+121.9+118.15+119.668L118.15+25.1532ZM73.3162+32.6916C96.0358+32.6916+114.414+52.2139+114.414+76.3484C114.414+100.483+96.0358+120.005+73.3162+120.005C50.5965+120.005+32.2187+100.483+32.2187+76.3484C32.2187+52.2139+50.5965+32.6916+73.3162+32.6916ZM73.3162+48.5668C72.2845+48.5668+71.4481+49.4552+71.4481+50.5512C71.4481+51.6471+72.2845+52.5356+73.3162+52.5356C74.3479+52.5356+75.1842+51.6471+75.1842+50.5512C75.1842+49.4552+74.3479+48.5668+73.3162+48.5668ZM64.0379+50.5279C63.7875+50.5259+63.5394+50.5773+63.3081+50.6791C62.355+51.0986+61.9025+52.2595+62.2975+53.272C62.6924+54.2844+63.7853+54.7651+64.7384+54.3456C65.6915+53.926+66.144+52.7651+65.749+51.7527C65.4619+51.0165+64.788+50.5341+64.0379+50.5279ZM82.6529+50.5279C81.8815+50.5088+81.1785+50.9954+80.8833+51.7527C80.4884+52.7651+80.9408+53.926+81.894+54.3456C82.8471+54.7651+83.9399+54.2844+84.3349+53.272C84.7298+52.2595+84.2773+51.0986+83.3242+50.6791C83.1111+50.5851+82.8835+50.5338+82.6529+50.5279ZM56.1715+56.1207C55.6673+56.1135+55.1817+56.3231+54.8252+56.702C54.0959+57.477+54.0959+58.7332+54.8252+59.5081C55.5547+60.2829+56.7373+60.2829+57.4668+59.5081C58.1961+58.7332+58.1961+57.477+57.4668+56.702C57.1228+56.3364+56.6581+56.1279+56.1715+56.1207ZM90.5155+56.1245C90.01+56.1163+89.523+56.3261+89.1656+56.7059C88.4362+57.4808+88.4362+58.7371+89.1656+59.512C89.8951+60.2867+91.0776+60.2867+91.8071+59.512C92.5365+58.7371+92.5365+57.4808+91.8071+56.7059C91.4641+56.3412+91.0008+56.1327+90.5155+56.1245ZM95.7658+64.4885C95.5155+64.4864+95.2674+64.5378+95.0361+64.6396C94.083+65.0592+93.6305+66.2201+94.0255+67.2325C94.4204+68.245+95.5133+68.7257+96.4664+68.3061C97.4195+67.8866+97.872+66.7257+97.477+65.7132C97.1899+64.977+96.516+64.4947+95.7658+64.4885ZM50.9249+64.4924C50.1535+64.4732+49.4505+64.9598+49.1553+65.7171C48.7604+66.7296+49.2129+67.8905+50.166+68.31C50.6241+68.5112+51.1388+68.5108+51.5967+68.3087C52.0545+68.1066+52.4179+67.7194+52.6069+67.2325C53.0018+66.2201+52.5493+65.0592+51.5962+64.6396C51.3829+64.547+51.1553+64.497+50.9249+64.4924ZM49.0313+74.364C47.9996+74.364+47.1632+75.2524+47.1632+76.3484C47.1632+77.4443+47.9996+78.3328+49.0313+78.3328C50.063+78.3328+50.8993+77.4443+50.8993+76.3484C50.8993+75.2524+50.063+74.364+49.0313+74.364ZM50.8957+84.2356C50.6454+84.2335+50.3972+84.2849+50.166+84.3867C49.2129+84.8063+48.7604+85.9672+49.1553+86.9796C49.5503+87.9921+50.6431+88.4728+51.5962+88.0532C52.5493+87.6337+53.0018+86.4728+52.6069+85.4603C52.3197+84.7241+51.6458+84.2418+50.8957+84.2356ZM56.1715+92.6034C55.666+92.5951+55.179+92.8049+54.8216+93.1848C54.0922+93.9597+54.0922+95.2159+54.8216+95.9908C55.5511+96.7656+56.7336+96.7656+57.4631+95.9908C58.1925+95.2159+58.1925+93.9597+57.4631+93.1848C57.12+92.8201+56.6568+92.6116+56.1715+92.6034ZM64.0634+98.1961C63.2934+98.1786+62.5922+98.665+62.2975+99.4209C61.9025+100.433+62.355+101.594+63.3081+102.014C64.2613+102.433+65.3541+101.953+65.749+100.94C66.144+99.9277+65.6915+98.7668+64.7384+98.3473C64.5242+98.2528+64.2953+98.2016+64.0634+98.1961Z" opacity="1" fill="#000000"/>
</g>
</svg>
