<?xml version="1.0" encoding="UTF-8" standalone="no"?> <!-- Created with Vectornator for iOS (http://vectornator.io/) --><!DOCTYPE svg PUBLIC "-//W3C//DTD SVG 1.1//EN" "http://www.w3.org/Graphics/SVG/1.1/DTD/svg11.dtd">
<svg style="fill-rule:evenodd;clip-rule:evenodd;stroke-linecap:round;stroke-linejoin:round;" xmlns:vectornator="http://vectornator.io" xmlns:xlink="http://www.w3.org/1999/xlink" xmlns="http://www.w3.org/2000/svg" xml:space="preserve" version="1.1" viewBox="0 0 150 150">
<metadata>
<vectornator:setting key="DisplayWhiteBackground" value="0"/>
<vectornator:setting key="RulersVisible" value="1"/>
<vectornator:setting key="SnapToEdges" value="0"/>
<vectornator:setting key="Units" value="Pixels"/>
<vectornator:setting key="DynamicGuides" value="0"/>
<vectornator:setting key="SnapToPoints" value="0"/>
<vectornator:setting key="SnapToGrid" value="0"/>
<vectornator:setting key="SnapToGuides" value="1"/>
<vectornator:setting key="ShowGrid" value="1"/>
<vectornator:setting key="GridSpacing" value="36"/>
</metadata>
<defs/>
<g id="Layer 1" vectornator:layerName="Layer 1">
<path d="M42.2816+8.29928C34.2441+8.29928+27.6681+14.7088+27.6681+22.5426C27.6681+30.3764+34.2441+36.7858+42.2816+36.7858C50.319+36.7858+56.8951+30.3764+56.8951+22.5426C56.8951+14.7088+50.319+8.29928+42.2816+8.29928ZM103.658+8.29928C95.6209+8.29928+89.0448+14.7088+89.0448+22.5426C89.0448+30.3764+95.6209+36.7858+103.658+36.7858C111.696+36.7858+118.272+30.3764+118.272+22.5426C118.272+14.7088+111.696+8.29928+103.658+8.29928ZM42.2816+13.9966C47.1566+13.9966+51.0497+17.7911+51.0497+22.5426C51.0497+27.294+47.1566+31.0885+42.2816+31.0885C37.4066+31.0885+33.5135+27.294+33.5135+22.5426C33.5135+17.7911+37.4066+13.9966+42.2816+13.9966ZM103.658+13.9966C108.533+13.9966+112.426+17.7911+112.426+22.5426C112.426+27.294+108.533+31.0885+103.658+31.0885C98.7833+31.0885+94.8902+27.294+94.8902+22.5426C94.8902+17.7911+98.7833+13.9966+103.658+13.9966ZM29.1294+39.6345C20.2928+39.6345+13.0546+46.6894+13.0546+55.3021L13.0546+90.3762C13.0317+90.5542+13.0317+90.7322+13.0546+90.9103C13.0431+91.1773+13.0774+91.4555+13.1459+91.7115C13.5797+96.0178+17.3016+99.4562+21.8227+99.4562C22.8502+99.4562+23.8206+99.2448+24.7454+98.9221L24.7454+131.771C24.7454+135.932+28.2389+139.337+32.5088+139.337L37.4409+139.337C39.3246+139.337+40.923+138.481+42.2816+137.379C43.6402+138.481+45.2385+139.337+47.1223+139.337L52.0544+139.337C56.3242+139.337+59.8178+135.932+59.8178+131.771L59.8178+113.165C60.7426+113.488+61.713+113.7+62.7405+113.7L62.7405+132.216C62.7405+136.11+66.0514+139.337+70.0472+139.337L78.8154+139.337C82.8112+139.337+86.1221+136.11+86.1221+132.216L86.1221+113.7C87.1496+113.7+88.12+113.488+89.0448+113.165L89.0448+130.791C89.0448+135.476+93.0064+139.337+97.8129+139.337C100.051+139.337+102.106+138.481+103.658+137.112C105.211+138.481+107.266+139.337+109.504+139.337C114.31+139.337+118.272+135.476+118.272+130.791L118.272+108.002L125.853+108.002C127.771+108.002+129.586+107.034+130.602+105.51C130.602+105.476+130.602+105.454+130.602+105.421C131.618+103.885+131.846+102.049+131.333+100.346C131.333+100.313+131.333+100.291+131.333+100.257L130.145+96.6076C133.102+96.6076+135.774+95.2055+137.178+92.9577C138.582+90.71+138.799+87.9058+137.909+85.213C135.226+77.1344+126.127+50.1389+126.127+50.1389C125.579+48.492+124.551+46.0551+122.382+43.8184C120.213+41.5818+116.788+39.6345+112.426+39.6345L106.764+39.6345C106.707+39.6345+106.638+39.6345+106.581+39.6345L94.8902+39.6345C90.5176+39.6345+87.104+41.5818+84.9348+43.8184C83.8273+44.9757+83.8844+46.7895+85.0718+47.8689C86.2591+48.9483+88.12+48.8926+89.2275+47.7353C90.5518+46.3555+92.1844+45.3318+94.8902+45.3318L106.581+45.3318C106.672+45.3318+106.764+45.3318+106.855+45.3318L112.426+45.3318C115.121+45.3318+116.765+46.3667+118.089+47.7353C119.414+49.104+120.315+50.9067+120.647+51.9193C120.647+51.9193+129.654+78.848+132.337+86.9044C132.805+88.3064+132.611+89.3524+132.246+89.9311C131.881+90.5097+131.401+90.9103+130.145+90.9103C128.935+90.9103+127.885+90.1425+127.497+89.1299C127.485+89.1076+127.508+89.0631+127.497+89.0408C127.451+88.7627+127.36+88.4956+127.223+88.2397L119.094+64.3822C118.66+63.058+117.313+62.2234+115.897+62.4237C115.029+62.535+114.265+63.0246+113.808+63.7479C113.34+64.4712+113.237+65.3614+113.522+66.1626L121.743+90.1981C121.8+90.4429+121.891+90.6877+122.017+90.9103L125.761+102.038L125.761+102.127C125.773+102.216+125.681+102.26+125.67+102.305L103.841+102.305C103.784+102.305+103.715+102.305+103.658+102.305L94.8902+102.305L94.8902+85.213C94.8902+78.9482+89.6271+73.8183+83.1994+73.8183L65.6632+73.8183C59.2355+73.8183+53.9724+78.9482+53.9724+85.213L53.9724+90.4652C53.9724+90.5542+53.9724+90.6432+53.9724+90.7322L53.9724+131.771C53.9724+132.861+53.1618+133.64+52.0544+133.64L47.1223+133.64C46.0035+133.64+45.2043+132.861+45.2043+131.771L45.2043+95.6284C45.2157+94.8049+44.8504+94.026+44.2224+93.4807C43.5945+92.9355+42.7497+92.6796+41.9162+92.7797C40.4435+92.9577+39.3475+94.1818+39.3589+95.6284L39.3589+131.771C39.3589+132.861+38.5483+133.64+37.4409+133.64L32.5088+133.64C31.39+133.64+30.5908+132.861+30.5908+131.771L30.5908+62.4237C30.625+61.6003+30.2825+60.8102+29.6774+60.2539C29.0609+59.6863+28.2275+59.4082+27.3941+59.4861C27.2685+59.5083+27.1429+59.5417+27.0287+59.5751C25.6701+59.8755+24.7111+61.0662+24.7454+62.4237L24.7454+90.4652C24.7454+90.5542+24.7454+90.6432+24.7454+90.7322L24.7454+90.9103C24.7454+92.5238+23.4781+93.7589+21.8227+93.7589C20.2357+93.7589+18.9913+92.6128+18.9+91.0883C18.9+91.0327+18.9+90.9659+18.9+90.9103C18.9228+90.7322+18.9228+90.5542+18.9+90.3762L18.9+55.3021C18.9+49.7828+23.4553+45.3318+29.1294+45.3318L55.4337+45.3318C57.6258+45.3318+59.6237+45.9772+61.2791+47.1122C62.124+47.8021+63.2885+47.969+64.2932+47.5462C65.3093+47.1233+65.9943+46.1886+66.0628+45.1204C66.1427+44.0521+65.5947+43.0395+64.6585+42.4831C62.0555+40.7027+58.8474+39.6345+55.4337+39.6345L29.1294+39.6345ZM74.4313+48.1805C68.0036+48.1805+62.7405+53.3103+62.7405+59.5751C62.7405+65.8399+68.0036+70.9697+74.4313+70.9697C80.859+70.9697+86.1221+65.8399+86.1221+59.5751C86.1221+53.3103+80.859+48.1805+74.4313+48.1805ZM74.4313+53.8778C77.6965+53.8778+80.2767+56.3926+80.2767+59.5751C80.2767+62.7576+77.6965+65.2724+74.4313+65.2724C71.1661+65.2724+68.5859+62.7576+68.5859+59.5751C68.5859+56.3926+71.1661+53.8778+74.4313+53.8778ZM65.6632+79.5157L83.1994+79.5157C86.4646+79.5157+89.0448+82.0305+89.0448+85.213L89.0448+104.619C89.0448+104.708+89.0448+104.797+89.0448+104.886L89.0448+105.154C89.0448+106.767+87.7775+108.002+86.1221+108.002L83.1994+108.002C81.5896+108.002+80.2767+109.282+80.2767+110.851L80.2767+132.216C80.2767+133.028+79.6488+133.64+78.8154+133.64L70.0472+133.64C69.2138+133.64+68.5859+133.028+68.5859+132.216L68.5859+110.851C68.5859+109.282+67.273+108.002+65.6632+108.002L62.7405+108.002C61.0851+108.002+59.8178+106.767+59.8178+105.154L59.8178+85.213C59.8178+82.0305+62.398+79.5157+65.6632+79.5157ZM94.8902+108.002L100.736+108.002L100.736+130.791C100.736+132.405+99.4684+133.64+97.8129+133.64C96.1575+133.64+94.8902+132.405+94.8902+130.791L94.8902+108.002ZM106.581+108.002L112.426+108.002L112.426+130.791C112.426+132.405+111.159+133.64+109.504+133.64C107.848+133.64+106.581+132.405+106.581+130.791L106.581+108.002Z" opacity="1" fill="#000000"/>
</g>
</svg>
