<?xml version="1.0" encoding="UTF-8" standalone="no"?> <!-- Created with Vectornator for iOS (http://vectornator.io/) --><!DOCTYPE svg PUBLIC "-//W3C//DTD SVG 1.1//EN" "http://www.w3.org/Graphics/SVG/1.1/DTD/svg11.dtd">
<svg style="fill-rule:evenodd;clip-rule:evenodd;stroke-linecap:round;stroke-linejoin:round;" xmlns:vectornator="http://vectornator.io" xmlns:xlink="http://www.w3.org/1999/xlink" xmlns="http://www.w3.org/2000/svg" xml:space="preserve" version="1.1" viewBox="0 0 150 150">
<metadata>
<vectornator:setting key="DisplayWhiteBackground" value="0"/>
<vectornator:setting key="RulersVisible" value="1"/>
<vectornator:setting key="SnapToEdges" value="0"/>
<vectornator:setting key="Units" value="Pixels"/>
<vectornator:setting key="DynamicGuides" value="0"/>
<vectornator:setting key="SnapToPoints" value="0"/>
<vectornator:setting key="SnapToGrid" value="0"/>
<vectornator:setting key="SnapToGuides" value="1"/>
<vectornator:setting key="ShowGrid" value="1"/>
<vectornator:setting key="GridSpacing" value="36"/>
</metadata>
<defs/>
<g id="Layer 1" vectornator:layerName="Layer 1">
<path d="M72.3745+20.3912C72.048+20.3912+71.7221+20.4959+71.4422+20.7096L17.0212+61.868C16.6325+62.1688+16.3987+62.6291+16.3987+63.1356L16.3987+78.9658C16.3987+79.5673+16.7264+80.1065+17.2551+80.3756C17.7837+80.6448+18.4039+80.5975+18.8859+80.2334L22.6182+77.4106L22.6182+129.622C22.6182+130.496+23.3132+131.205+24.1731+131.205L120.576+131.205C121.436+131.205+122.131+130.496+122.131+129.622L122.131+77.4106L125.863+80.2334C126.143+80.4392+126.469+80.5488+126.795+80.5488C127.029+80.5488+127.276+80.4865+127.494+80.3756C128.023+80.1065+128.35+79.5673+128.35+78.9658L128.35+63.1356C128.35+62.6291+128.116+62.1688+127.728+61.868L114.356+51.7577L114.356+33.0584L116.689+33.0584C117.118+33.0584+117.466+32.7038+117.466+32.2669L117.466+25.9348C117.466+25.4979+117.118+25.1433+116.689+25.1433L101.14+25.1433C100.711+25.1433+100.362+25.4979+100.362+25.9348L100.362+32.2669C100.362+32.7038+100.711+33.0584+101.14+33.0584L103.472+33.0584L103.472+43.518L73.3068+20.7096C73.027+20.4959+72.701+20.3912+72.3745+20.3912ZM72.3745+23.9561L103.472+47.4756L103.472+52.0545C103.472+52.3031+103.586+52.5396+103.782+52.6884L108.447+56.2502C108.789+56.5129+109.279+56.4439+109.537+56.0925C109.793+55.7426+109.723+55.2453+109.379+54.9825L105.024+51.6588L105.024+48.6505L105.024+44.6929L105.024+32.2669C105.024+31.83+104.676+31.4754+104.247+31.4754L101.917+31.4754L101.917+26.7263L115.911+26.7263L115.911+31.4754L113.579+31.4754C113.15+31.4754+112.801+31.83+112.801+32.2669L112.801+50.5828L112.801+54.5249L112.801+57.5951L112.492+57.357C112.151+57.0974+111.661+57.1633+111.401+57.5147C111.145+57.8646+111.216+58.3619+111.559+58.6247L113.114+59.8119C113.251+59.9164+113.416+59.9696+113.582+59.9696C113.7+59.9696+113.818+59.9415+113.928+59.8861C114.189+59.7516+114.356+59.4773+114.356+59.1781L114.356+55.6998L125.241+63.9271L125.241+75.8152L73.3068+36.5398C73.027+36.334+72.701+36.2244+72.3745+36.2244C72.048+36.2244+71.7221+36.334+71.4422+36.5398L19.5084+75.8152L19.5084+63.9271L72.3745+23.9561ZM72.3745+39.7862L119.021+75.0577L119.021+128.039L87.9233+128.039L87.9233+87.6724C87.9233+87.2354+87.5751+86.8808+87.1459+86.8808L57.6031+86.8808C57.174+86.8808+56.8257+87.2354+56.8257+87.6724L56.8257+128.039L25.728+128.039L25.728+75.0577L72.3745+39.7862ZM58.3806+88.4639L86.3685+88.4639L86.3685+128.039L58.3806+128.039L58.3806+88.4639ZM79.3715+107.46C78.9423+107.46+78.594+107.815+78.594+108.252C78.594+108.688+78.9423+109.043+79.3715+109.043L82.4813+109.043C82.9104+109.043+83.2587+108.688+83.2587+108.252C83.2587+107.815+82.9104+107.46+82.4813+107.46L79.3715+107.46Z" opacity="1" fill="#000000"/>
</g>
</svg>
