<?xml version="1.0" encoding="UTF-8" standalone="no"?> <!-- Created with Vectornator for iOS (http://vectornator.io/) --><!DOCTYPE svg PUBLIC "-//W3C//DTD SVG 1.1//EN" "http://www.w3.org/Graphics/SVG/1.1/DTD/svg11.dtd">
<svg style="fill-rule:evenodd;clip-rule:evenodd;stroke-linecap:round;stroke-linejoin:round;" xmlns:vectornator="http://vectornator.io" xmlns:xlink="http://www.w3.org/1999/xlink" xmlns="http://www.w3.org/2000/svg" xml:space="preserve" version="1.1" viewBox="0 0 150 150">
<metadata>
<vectornator:setting key="DisplayWhiteBackground" value="0"/>
<vectornator:setting key="RulersVisible" value="1"/>
<vectornator:setting key="SnapToEdges" value="0"/>
<vectornator:setting key="Units" value="Pixels"/>
<vectornator:setting key="DynamicGuides" value="0"/>
<vectornator:setting key="SnapToPoints" value="0"/>
<vectornator:setting key="SnapToGrid" value="0"/>
<vectornator:setting key="SnapToGuides" value="1"/>
<vectornator:setting key="ShowGrid" value="1"/>
<vectornator:setting key="GridSpacing" value="36"/>
</metadata>
<defs/>
<g id="Layer 1" vectornator:layerName="Layer 1">
<path d="M31.607+13.6281C25.8943+13.6281+21.2166+19.095+21.2166+25.7715C21.2166+32.448+25.8943+37.9149+31.607+37.9149C37.3197+37.9149+41.9973+32.448+41.9973+25.7715C41.9973+19.095+37.3197+13.6281+31.607+13.6281ZM114.73+13.6281C109.017+13.6281+104.34+19.095+104.34+25.7715C104.34+32.448+109.017+37.9149+114.73+37.9149C120.443+37.9149+125.12+32.448+125.12+25.7715C125.12+19.095+120.443+13.6281+114.73+13.6281ZM31.607+19.6998C34.509+19.6998+36.8022+22.3799+36.8022+25.7715C36.8022+29.1632+34.509+31.8432+31.607+31.8432C28.705+31.8432+26.4118+29.1632+26.4118+25.7715C26.4118+22.3799+28.705+19.6998+31.607+19.6998ZM114.73+19.6998C117.632+19.6998+119.925+22.3799+119.925+25.7715C119.925+29.1632+117.632+31.8432+114.73+31.8432C111.828+31.8432+109.535+29.1632+109.535+25.7715C109.535+22.3799+111.828+19.6998+114.73+19.6998ZM31.607+40.9508C25.8943+40.9508+21.2166+46.4177+21.2166+53.0942L21.2369+81.1758C21.2471+81.2588+21.2471+81.3418+21.2572+81.4248C21.7037+87.6863+26.2292+92.5602+31.607+92.5602L43.2657+92.5602L42.8801+95.5961L23.6316+95.5961C20.9528+95.5961+18.7814+93.2125+18.619+90.0817L18.619+47.0225C18.6292+46.2042+18.3552+45.4097+17.858+44.8286C17.3608+44.2475+16.681+43.9273+15.9808+43.9392C14.5501+43.9748+13.4035+45.3504+13.4238+47.0225L13.4238+90.2478C13.4238+90.3071+13.4238+90.3663+13.4238+90.4256C13.6369+94.5169+15.6257+98.0153+18.477+99.9838L16.0417+125.623C15.8794+127.283+16.9042+128.789+18.3349+128.967C19.7555+129.156+21.0441+127.959+21.1963+126.287L23.5504+101.656C23.5707+101.656+23.6011+101.668+23.6316+101.668L42.0988+101.668L39.4302+122.468C39.2983+123.488+39.6128+124.508+40.2724+125.196C40.2724+125.196+41.4799+126.37+43.4483+127.271C45.4168+128.16+48.3493+128.99+52.3877+128.99C56.4262+128.99+59.3586+128.16+61.3271+127.271C62.22+126.856+62.2301+126.714+62.7679+126.322C63.2956+126.714+63.2956+126.856+64.158+127.259C66.1164+128.16+69.059+128.99+73.1684+128.99C77.2779+128.99+80.2205+128.16+82.1788+127.259C83.0413+126.868+83.0312+126.714+83.5588+126.334C84.0864+126.714+84.0763+126.868+84.9388+127.259C86.8971+128.16+89.8397+128.99+93.9492+128.99C98.0586+128.99+101.001+128.16+102.96+127.259C104.918+126.358+106.125+125.136+106.125+125.136C106.744+124.449+107.039+123.452+106.907+122.468L104.238+101.668L122.705+101.668C122.736+101.668+122.766+101.656+122.797+101.656L125.13+126.287C125.293+127.959+126.581+129.156+128.012+128.979C129.433+128.789+130.458+127.283+130.305+125.623L127.87+99.9838C130.711+98.0153+132.7+94.5169+132.913+90.4256C132.913+90.3663+132.913+90.3071+132.913+90.2478L132.913+47.0225C132.923+46.2042+132.649+45.4097+132.152+44.8286C131.655+44.2475+130.975+43.9273+130.275+43.9392C128.844+43.9748+127.698+45.3504+127.718+47.0225L127.718+90.0817C127.556+93.2125+125.384+95.5961+122.705+95.5961L103.457+95.5961L103.071+92.5602L114.73+92.5602C120.108+92.5602+124.633+87.6863+125.08+81.4248C125.09+81.3418+125.09+81.2588+125.09+81.1758L125.12+53.0942C125.12+46.4177+120.443+40.9508+114.73+40.9508C109.058+40.9508+104.958+46.4414+104.35+52.7621C104.34+52.8689+104.34+52.9756+104.34+53.0942L104.34+74.3451L100.727+74.3451L99.1139+61.7511C98.9211+60.2688+97.8354+59.1659+96.5468+59.1659L49.7901+59.1659C48.5015+59.1659+47.4158+60.2688+47.223+61.7511L45.6096+74.3451C45.5386+74.3451+45.4777+74.3451+45.4067+74.3451L41.9973+74.3451L41.9973+53.0942C41.9973+52.9756+41.9973+52.8689+41.9872+52.7621C41.3784+46.4414+37.2791+40.9508+31.607+40.9508ZM31.607+47.0225C34.5293+47.0225+36.4166+49.4891+36.8022+53.3907L36.8022+77.381C36.8022+79.0531+37.9691+80.4168+39.3998+80.4168L44.8283+80.4168L44.047+86.4885L31.607+86.4885C28.8876+86.4885+26.6756+84.1049+26.4321+80.9386L26.4118+53.0942C26.4118+49.7026+28.705+47.0225+31.607+47.0225ZM114.73+47.0225C117.632+47.0225+119.925+49.7026+119.925+53.0942L119.895+80.9386C119.661+84.1049+117.449+86.4885+114.73+86.4885L102.29+86.4885L101.509+80.4168L106.937+80.4168C108.368+80.4168+109.535+79.0531+109.535+77.381L109.535+53.3907C109.92+49.4891+111.808+47.0225+114.73+47.0225ZM52.0224+65.2376L94.3145+65.2376L101.509+121.341C101.295+121.46+101.458+121.425+101.052+121.614C99.7227+122.231+97.4701+122.919+93.9492+122.919C90.4282+122.919+88.1655+122.231+86.8464+121.614C86.4811+121.448+86.3695+121.353+86.1564+121.235L86.1564+110.775C86.1665+109.957+85.8926+109.163+85.3954+108.581C84.8982+108+84.2184+107.68+83.5182+107.692C82.0875+107.728+80.9409+109.103+80.9612+110.775L80.9612+121.235C80.7481+121.353+80.6365+121.448+80.2712+121.614C78.942+122.231+76.6894+122.919+73.1684+122.919C69.6475+122.919+67.3847+122.231+66.0657+121.614C65.7004+121.448+65.5888+121.353+65.3757+121.235L65.3757+104.704C65.3858+103.885+65.1119+103.091+64.6147+102.51C64.1175+101.929+63.4376+101.608+62.7375+101.62C61.3068+101.656+60.1602+103.032+60.1805+104.704L60.1805+121.211C59.9573+121.33+59.8253+121.436+59.4398+121.602C58.0801+122.231+55.8173+122.919+52.3877+122.919C48.9581+122.919+46.6953+122.231+45.3357+121.602C44.9095+121.413+45.0617+121.448+44.8283+121.306L52.0224+65.2376Z" opacity="1" fill="#000000"/>
</g>
</svg>
