<?xml version="1.0" encoding="UTF-8" standalone="no"?> <!-- Created with Vectornator for iOS (http://vectornator.io/) --><!DOCTYPE svg PUBLIC "-//W3C//DTD SVG 1.1//EN" "http://www.w3.org/Graphics/SVG/1.1/DTD/svg11.dtd">
<svg style="fill-rule:evenodd;clip-rule:evenodd;stroke-linecap:round;stroke-linejoin:round;" xmlns:vectornator="http://vectornator.io" xmlns:xlink="http://www.w3.org/1999/xlink" xmlns="http://www.w3.org/2000/svg" xml:space="preserve" version="1.1" viewBox="0 0 150 150">
<metadata>
<vectornator:setting key="DisplayWhiteBackground" value="0"/>
<vectornator:setting key="RulersVisible" value="1"/>
<vectornator:setting key="SnapToEdges" value="0"/>
<vectornator:setting key="Units" value="Pixels"/>
<vectornator:setting key="DynamicGuides" value="0"/>
<vectornator:setting key="SnapToPoints" value="0"/>
<vectornator:setting key="SnapToGrid" value="0"/>
<vectornator:setting key="SnapToGuides" value="1"/>
<vectornator:setting key="ShowGrid" value="1"/>
<vectornator:setting key="GridSpacing" value="36"/>
</metadata>
<defs/>
<g id="Layer 1" vectornator:layerName="Layer 1">
<path d="M7.81108+11.1595C7.72072+11.1798+7.63037+11.2103+7.54001+11.2407C4.72761+11.5962+2.57032+13.739+2.57032+16.3591C2.57032+19.2331+5.15681+21.5587+8.35323+21.5587C11.5496+21.5587+14.1361+19.2331+14.1361+16.3591L27.5995+16.3591C31.2025+16.3591+33.0774+17.0294+34.4667+18.1465C35.8334+19.2534+36.9403+21.1221+37.9003+23.9961L61.032+107.921C61.9017+110.897+62.7714+113.964+65.1884+116.452C66.1937+117.488+67.4587+118.331+68.9835+118.971C67.2893+120.778+66.1824+123.023+66.1824+125.551C66.1824+131.269+71.3893+135.951+77.7482+135.951C84.1071+135.951+89.314+131.269+89.314+125.551C89.314+123.642+88.6928+121.895+87.6876+120.352L105.398+120.352C104.393+121.895+103.771+123.642+103.771+125.551C103.771+131.269+108.978+135.951+115.337+135.951C121.696+135.951+126.903+131.269+126.903+125.551C126.903+122.881+125.694+120.494+123.831+118.646C124.158+117.854+124.023+116.96+123.492+116.269C122.95+115.569+122.069+115.152+121.12+115.152L76.935+115.152C72.4735+115.152+70.6551+114.299+69.4353+113.04C68.2267+111.791+67.4926+109.607+66.6342+106.703L66.6342+106.622L64.6463+99.5533L117.686+99.5533C118.895+99.5533+119.991+98.8729+120.397+97.8471L141.18+48.4506C141.518+47.6585+141.394+46.7648+140.852+46.0641C140.31+45.3633+139.418+44.947+138.469+44.9571L131.421+44.9571C131.387+44.9266+131.364+44.9063+131.331+44.8759L106.843+22.8587C106.245+22.2798+105.375+21.9853+104.494+22.0462C103.839+22.1275+103.229+22.422+102.777+22.8587L93.2898+31.4706L83.7118+22.8587C83.1132+22.2798+82.2435+21.9853+81.3625+22.0462C80.7074+22.1275+80.0975+22.422+79.6457+22.8587L55.1587+44.8759C55.1248+44.9063+55.1022+44.9266+55.0683+44.9571L49.6469+44.9571L43.5025+22.7774C43.5025+22.7266+43.5025+22.6657+43.5025+22.6149C42.3956+19.2636+40.9612+16.3591+38.3521+14.2468C35.743+12.1344+32.0722+11.1595+27.5995+11.1595L8.35323+11.1595C8.26287+11.1595+8.17251+11.1595+8.08216+11.1595C7.9918+11.1595+7.90144+11.1595+7.81108+11.1595ZM81.724+28.3833L90.308+36.1015C90.579+36.853+91.2115+37.442+92.0248+37.7264C92.1151+37.7568+92.2055+37.7873+92.2958+37.8076L100.157+44.9571L63.2006+44.9571L81.724+28.3833ZM104.856+28.3833L123.289+44.9571L108.289+44.9571C108.255+44.9266+108.233+44.9063+108.199+44.8759L97.3559+35.1265L104.856+28.3833ZM51.0926+50.1567L134.312+50.1567L115.699+94.3536L63.2909+94.3536L51.0926+50.1567ZM77.7482+120.352C80.9785+120.352+83.5311+122.647+83.5311+125.551C83.5311+128.456+80.9785+130.751+77.7482+130.751C74.5179+130.751+71.9653+128.456+71.9653+125.551C71.9653+122.647+74.5179+120.352+77.7482+120.352ZM115.337+120.352C118.567+120.352+121.12+122.647+121.12+125.551C121.12+128.456+118.567+130.751+115.337+130.751C112.107+130.751+109.554+128.456+109.554+125.551C109.554+122.647+112.107+120.352+115.337+120.352Z" opacity="1" fill="#000000"/>
</g>
</svg>
